<?xml version="1.0" encoding="utf-8"?>
<!-- Generator: Adobe Illustrator 16.0.0, SVG Export Plug-In . SVG Version: 6.00 Build 0)  -->
<!DOCTYPE svg PUBLIC "-//W3C//DTD SVG 1.1//EN" "http://www.w3.org/Graphics/SVG/1.1/DTD/svg11.dtd">
<svg version="1.1" id="Layer_1" xmlns="http://www.w3.org/2000/svg" xmlns:xlink="http://www.w3.org/1999/xlink" x="0px" y="0px"
	 width="72px" height="72px" viewBox="0 0 72 72" enable-background="new 0 0 72 72" xml:space="preserve">
<g>
	<path fill-rule="evenodd" clip-rule="evenodd" fill="#4B4D4F" d="M65.687,7.714v3.004c0,4.107-3.277,7.412-7.313,7.412h-4.616
		c-4.038,0-7.359-3.305-7.359-7.407V7.679H25.6v3.04c0,4.107-3.32,7.412-7.356,7.412h-4.614c-4.043,0-7.316-3.305-7.316-7.407V7.714
		c-3.527,0.109-6.43,3.077-6.43,6.724v51.103c0,3.719,2.965,6.77,6.619,6.77h58.991c3.651,0,6.624-3.061,6.624-6.77V14.438
		C72.117,10.791,69.215,7.823,65.687,7.714z M63.543,60.945c0,1.607-1.282,2.908-2.861,2.908H11.19
		c-1.579,0-2.861-1.301-2.861-2.908V28.049c0-1.604,1.282-2.908,2.861-2.908h49.491c1.579,0,2.861,1.304,2.861,2.908V60.945z"/>
	<g>
		<path fill="#00B4C5" d="M15.798,14.103c-2.383,0-4.314-1.931-4.314-4.314V4.004c0-2.382,1.932-4.314,4.314-4.314
			c2.384,0,4.313,1.932,4.313,4.314v5.785C20.111,12.172,18.182,14.103,15.798,14.103z"/>
	</g>
	<g>
		<path fill="#00B4C5" d="M55.909,14.103c-2.383,0-4.313-1.931-4.313-4.314V4.004c0-2.382,1.931-4.314,4.313-4.314
			s4.314,1.932,4.314,4.314v5.785C60.224,12.172,58.292,14.103,55.909,14.103z"/>
	</g>
	<g>
		<path fill="#00B4C5" d="M32.084,60.408c-1.369,0-2.658-0.65-3.471-1.752l-9.247-12.523c-1.415-1.918-1.009-4.619,0.908-6.033
			c1.917-1.416,4.618-1.008,6.033,0.908l5.775,7.822l13.608-18.435c1.413-1.918,4.114-2.327,6.032-0.908
			c1.918,1.414,2.324,4.114,0.908,6.032L35.555,58.656C34.741,59.758,33.453,60.408,32.084,60.408z"/>
	</g>
</g>
</svg>
