<?xml version="1.0" encoding="utf-8"?>
<!-- Generator: Adobe Illustrator 16.0.0, SVG Export Plug-In . SVG Version: 6.00 Build 0)  -->
<!DOCTYPE svg PUBLIC "-//W3C//DTD SVG 1.1//EN" "http://www.w3.org/Graphics/SVG/1.1/DTD/svg11.dtd">
<svg version="1.1" id="Layer_1" xmlns="http://www.w3.org/2000/svg" xmlns:xlink="http://www.w3.org/1999/xlink" x="0px" y="0px"
	 width="72px" height="72px" viewBox="0 0 72 72" enable-background="new 0 0 72 72" xml:space="preserve">
<g>
	<g>
		<path fill="#4B4D4F" d="M56.699,72H14.24c-1.328,0-2.468-0.945-2.713-2.25c-0.246-1.306,0.473-2.602,1.709-3.083
			c0.252-0.106,6.853-2.981,6.853-13.602V2.761C20.088,1.236,21.325,0,22.85,0h46.206c1.525,0,2.762,1.236,2.762,2.761v49.572
			c0,3.459,0,8.122-1.792,12.065C68.449,67.866,64.857,72,56.699,72z M21.675,66.478h35.024c5.66,0,7.448-2.49,8.299-4.364
			c1.297-2.854,1.297-6.664,1.297-9.726V5.523H25.611v47.542C25.611,59.282,23.791,63.581,21.675,66.478z"/>
	</g>
	<path fill="#4B4D4F" d="M16.354,22.537c0,0-12.945,0-14.047,0c-1.103,0-2.125,1.07-2.125,2.098c0,4.278,0,22.666,0,28.379
		c0,7.088,3.729,11.447,8.085,11.447c4.355,0,8.086-2.942,8.086-11.764C16.354,43.879,16.354,22.537,16.354,22.537z"/>
	<path fill="#4B4D4F" d="M46.499,26.686c0,1.382-1.122,2.503-2.502,2.503h-11.38c-1.382,0-2.502-1.121-2.502-2.503V13.043
		c0-1.382,1.12-2.501,2.502-2.501h11.38c1.38,0,2.502,1.119,2.502,2.501V26.686z"/>
	<g>
		<path fill="#00B4C5" d="M60.862,38.868H31.041c-0.953,0-1.726-0.771-1.726-1.726c0-0.953,0.772-1.726,1.726-1.726h29.822
			c0.953,0,1.726,0.772,1.726,1.726C62.588,38.097,61.815,38.868,60.862,38.868z"/>
	</g>
	<g>
		<path fill="#00B4C5" d="M60.862,47.293H31.041c-0.953,0-1.726-0.771-1.726-1.726c0-0.952,0.772-1.725,1.726-1.725h29.822
			c0.953,0,1.726,0.772,1.726,1.725C62.588,46.521,61.815,47.293,60.862,47.293z"/>
	</g>
	<g>
		<path fill="#00B4C5" d="M60.862,56.161H31.041c-0.953,0-1.726-0.772-1.726-1.726s0.772-1.726,1.726-1.726h29.822
			c0.953,0,1.726,0.772,1.726,1.726S61.815,56.161,60.862,56.161z"/>
	</g>
	<g>
		<path fill="#00B4C5" d="M60.652,25.6h-9.029c-0.954,0-1.727-0.772-1.727-1.726c0-0.953,0.772-1.726,1.727-1.726h9.029
			c0.953,0,1.726,0.772,1.726,1.726C62.378,24.827,61.605,25.6,60.652,25.6z"/>
	</g>
	<g>
		<path fill="#00B4C5" d="M60.652,17.582h-9.029c-0.954,0-1.727-0.772-1.727-1.726s0.772-1.726,1.727-1.726h9.029
			c0.953,0,1.726,0.772,1.726,1.726S61.605,17.582,60.652,17.582z"/>
	</g>
</g>
</svg>
