<?xml version="1.0" encoding="utf-8"?>
<!-- Generator: Adobe Illustrator 16.0.0, SVG Export Plug-In . SVG Version: 6.00 Build 0)  -->
<!DOCTYPE svg PUBLIC "-//W3C//DTD SVG 1.1//EN" "http://www.w3.org/Graphics/SVG/1.1/DTD/svg11.dtd">
<svg version="1.1" id="Layer_1" xmlns="http://www.w3.org/2000/svg" xmlns:xlink="http://www.w3.org/1999/xlink" x="0px" y="0px"
	 width="72px" height="72px" viewBox="0 0 72 72" enable-background="new 0 0 72 72" xml:space="preserve">
<g>
	<g>
		<path fill="#00B4C5" d="M53.797,18.226c-3.521-3.519-2.818-9.951,1.564-14.338c2.054-2.053,4.618-3.378,7.222-3.732
			c2.813-0.383,5.333,0.39,7.113,2.17l-2.83,2.827c-0.875-0.875-2.205-1.245-3.744-1.034c-1.742,0.237-3.493,1.159-4.932,2.597
			c-2.775,2.778-3.493,6.754-1.565,8.681L53.797,18.226z"/>
	</g>
	<path fill="#4B4D4F" d="M63.654,11.177l-2.921-2.924L38.609,6.593c0,0-36.241,36.242-37.406,37.402
		c-1.161,1.164-1.727,3.68-0.265,5.141c1.169,1.172,15.615,15.617,21.791,21.791c1.528,1.532,3.77,1.186,5.052-0.098
		c1.28-1.281,37.534-37.532,37.534-37.532L63.654,11.177z M58.063,20.39c-1.469,1.469-3.852,1.469-5.32,0
		c-1.469-1.47-1.469-3.849,0.001-5.319c1.468-1.469,3.851-1.471,5.319,0C59.531,16.539,59.531,18.92,58.063,20.39z"/>
	<path fill="#FFFFFF" d="M28.798,41.353l-4.101-4.101c-1.863-1.863-4.525-1.369-6.246,0.352c-1.698,1.696-2.194,4.362-0.331,6.225
		l4.1,4.102c1.864,1.863,4.505,1.344,6.203-0.354C30.144,45.854,30.661,43.216,28.798,41.353z M26.606,45.762
		c-0.729,0.729-1.603,0.802-2.381,0.023l-3.984-3.984c-0.753-0.753-0.707-1.65,0.023-2.38c0.731-0.732,1.651-0.803,2.404-0.051
		l3.985,3.985C27.432,44.134,27.337,45.03,26.606,45.762z"/>
	<polygon fill="#FFFFFF" points="37.718,52.099 35.621,54.196 28.428,26.967 30.551,24.846 	"/>
	<path fill="#FFFFFF" d="M47.929,35.383l-4.103-4.102c-1.863-1.865-4.525-1.37-6.246,0.351c-1.699,1.697-2.195,4.362-0.331,6.226
		l4.103,4.103c1.863,1.861,4.502,1.342,6.2-0.356C49.271,39.883,49.79,37.246,47.929,35.383z M45.736,39.788
		c-0.732,0.732-1.604,0.803-2.384,0.025l-3.983-3.983c-0.754-0.756-0.705-1.65,0.026-2.384c0.729-0.729,1.648-0.8,2.403-0.045
		l3.983,3.982C46.56,38.164,46.466,39.059,45.736,39.788z"/>
	<g>
		<path fill="#00B4C5" d="M59.523,20.489c-2.248,0-4.246-0.782-5.728-2.264l2.83-2.827c0.875,0.875,2.207,1.241,3.742,1.032
			c1.743-0.237,3.494-1.159,4.932-2.598c2.776-2.777,3.494-6.752,1.567-8.679l2.828-2.828c3.519,3.519,2.816,9.95-1.565,14.334
			c-2.053,2.054-4.617,3.379-7.223,3.734C60.438,20.457,59.976,20.489,59.523,20.489z"/>
	</g>
</g>
</svg>
