<?xml version="1.0" encoding="UTF-8" standalone="no"?>
<!-- Generator: Adobe Illustrator 16.0.0, SVG Export Plug-In . SVG Version: 6.00 Build 0)  -->

<svg
   xmlns:dc="http://purl.org/dc/elements/1.1/"
   xmlns:cc="http://creativecommons.org/ns#"
   xmlns:rdf="http://www.w3.org/1999/02/22-rdf-syntax-ns#"
   xmlns:svg="http://www.w3.org/2000/svg"
   xmlns="http://www.w3.org/2000/svg"
   xmlns:sodipodi="http://sodipodi.sourceforge.net/DTD/sodipodi-0.dtd"
   xmlns:inkscape="http://www.inkscape.org/namespaces/inkscape"
   version="1.1"
   id="Layer_1"
   x="0px"
   y="0px"
   width="72px"
   height="72px"
   viewBox="0 0 72 72"
   enable-background="new 0 0 72 72"
   xml:space="preserve"
   sodipodi:docname="iconcart.svg"
   inkscape:version="0.92.3 (2405546, 2018-03-11)"><metadata
   id="metadata13"><rdf:RDF><cc:Work
       rdf:about=""><dc:format>image/svg+xml</dc:format><dc:type
         rdf:resource="http://purl.org/dc/dcmitype/StillImage" /></cc:Work></rdf:RDF></metadata><defs
   id="defs11" /><sodipodi:namedview
   pagecolor="#ffffff"
   bordercolor="#666666"
   borderopacity="1"
   objecttolerance="10"
   gridtolerance="10"
   guidetolerance="10"
   inkscape:pageopacity="0"
   inkscape:pageshadow="2"
   inkscape:window-width="1366"
   inkscape:window-height="706"
   id="namedview9"
   showgrid="false"
   inkscape:zoom="3.2777778"
   inkscape:cx="-1.6779661"
   inkscape:cy="36"
   inkscape:window-x="-8"
   inkscape:window-y="-8"
   inkscape:window-maximized="1"
   inkscape:current-layer="Layer_1" />
<g
   id="g6"
   transform="matrix(-1,0,0,1,72.392,0)">
	<path
   d="m 61.466,1.068 c -1.34,-1.326 -3.516,-1.326 -4.858,0 l -20.64,20.421 c -1.267,-0.008 -2.539,0.465 -3.505,1.425 -1.93,1.906 -1.93,4.998 0,6.906 1.923,1.906 5.046,1.906 6.975,0 0.995,-0.987 1.463,-2.285 1.434,-3.573 L 61.466,5.875 c 1.341,-1.325 1.341,-3.481 0,-4.807 z"
   id="path2"
   inkscape:connector-curvature="0"
   style="clip-rule:evenodd;fill:#ffffff;fill-rule:evenodd" />
	<path
   d="M 68.075,27.207 H 45.974 c 0,5.487 -4.497,9.937 -10.043,9.937 -5.546,0 -10.044,-4.449 -10.044,-9.937 H 4.317 c -2.312,0 -4.196,1.616 -4.196,3.597 v 3.605 c 0,1.984 1.884,3.601 4.196,3.601 h 2.38 l 4.368,29.189 c 0,2.656 2.17,4.801 4.853,4.801 h 40.559 c 2.686,0 4.856,-2.145 4.856,-4.801 L 65.697,38.01 h 2.378 c 2.318,0 4.196,-1.617 4.196,-3.601 v -3.605 c 0,-1.981 -1.877,-3.597 -4.196,-3.597 z m -44.83,38.298 c -1.813,0.25 -3.484,-1 -3.739,-2.785 L 16.75,43.273 c -0.253,-1.796 1,-3.45 2.815,-3.699 1.812,-0.253 3.48,1 3.733,2.781 l 2.764,19.453 c 0.251,1.79 -1.007,3.445 -2.817,3.697 z m 16.247,-3.199 c 0,1.802 -1.476,3.259 -3.296,3.259 -1.815,0 -3.294,-1.457 -3.294,-3.259 v -19.54 c 0,-1.794 1.479,-3.253 3.294,-3.253 1.82,0 3.296,1.459 3.296,3.253 z m 13.399,0.414 c -0.255,1.785 -1.928,3.035 -3.74,2.785 -1.81,-0.252 -3.062,-1.907 -2.813,-3.696 l 2.758,-19.453 c 0.253,-1.781 1.928,-3.034 3.737,-2.781 1.809,0.249 3.067,1.903 2.813,3.699 z"
   id="path4"
   inkscape:connector-curvature="0"
   style="clip-rule:evenodd;fill:#ffffff;fill-rule:evenodd" />
</g>
</svg>