<?xml version="1.0" encoding="utf-8"?>
<!-- Generator: Adobe Illustrator 16.0.0, SVG Export Plug-In . SVG Version: 6.00 Build 0)  -->
<!DOCTYPE svg PUBLIC "-//W3C//DTD SVG 1.1//EN" "http://www.w3.org/Graphics/SVG/1.1/DTD/svg11.dtd">
<svg version="1.1" id="Layer_1" xmlns="http://www.w3.org/2000/svg" xmlns:xlink="http://www.w3.org/1999/xlink" x="0px" y="0px"
	 width="82px" height="82px" viewBox="0 0 82 82" enable-background="new 0 0 82 82" xml:space="preserve">
<g>
	<g>
		<path fill-rule="evenodd" clip-rule="evenodd" fill="#FFFFFF" d="M11.371,0.973c1.297-1.297,3.392-1.297,4.689,0l19.914,19.914
			c1.22-0.01,2.451,0.453,3.381,1.388c1.861,1.856,1.861,4.877,0,6.733c-1.856,1.861-4.866,1.861-6.732,0
			c-0.956-0.961-1.409-2.228-1.378-3.483L11.371,5.656C10.079,4.364,10.079,2.264,11.371,0.973z"/>
		<path fill-rule="evenodd" clip-rule="evenodd" fill="#FFFFFF" d="M43.591,65.847c0-3.658,0.931-7.101,2.563-10.106l2.039-14.508
			c0.244-1.739,1.856-2.959,3.601-2.715c1.755,0.249,2.96,1.861,2.716,3.61l-0.796,5.683c2.764-1.695,5.937-2.778,9.349-3.051
			l1.149-7.763h2.294c2.232,0,4.048-1.576,4.048-3.514v-3.514c0-1.932-1.815-3.509-4.048-3.509H45.696
			c0,5.355-4.338,9.692-9.683,9.692c-5.354,0-9.692-4.337-9.692-9.692H4.999c-2.237,0-4.048,1.577-4.048,3.509v3.514
			c0,1.938,1.811,3.514,4.048,3.514h2.293l4.21,28.462c0,2.589,2.095,4.684,4.684,4.684h27.842
			C43.743,68.753,43.591,67.319,43.591,65.847z M23.255,63.806c-1.75,0.244-3.366-0.972-3.605-2.716l-2.66-18.963
			c-0.249-1.749,0.966-3.361,2.71-3.61c1.75-0.244,3.367,0.977,3.605,2.715L25.97,60.2C26.209,61.949,25.004,63.562,23.255,63.806z
			 M38.928,60.688c0,1.759-1.424,3.178-3.173,3.178c-1.759,0-3.184-1.419-3.184-3.178V41.634c0-1.749,1.424-3.173,3.184-3.173
			c1.75,0,3.173,1.424,3.173,3.173V60.688z"/>
	</g>
	<path fill="#FFFFFF" d="M64.763,82.133c-8.98,0-16.285-7.306-16.285-16.286s7.305-16.285,16.285-16.285s16.286,7.305,16.286,16.285
		S73.743,82.133,64.763,82.133z M64.763,54.769c-6.107,0-11.078,4.972-11.078,11.078c0,6.107,4.971,11.078,11.078,11.078
		s11.078-4.971,11.078-11.078C75.841,59.74,70.87,54.769,64.763,54.769z"/>
	<g>
		<path fill="#FFFFFF" d="M69.142,70.98c-0.249,0-0.504-0.048-0.748-0.147l-5.583-2.313v-9.57c0-1.078,0.874-1.953,1.952-1.953
			s1.953,0.875,1.953,1.953v6.962l3.173,1.312c0.997,0.414,1.47,1.556,1.058,2.553C70.634,70.528,69.906,70.98,69.142,70.98z"/>
	</g>
</g>
</svg>
