<?xml version="1.0" encoding="utf-8"?>
<!-- Generator: Adobe Illustrator 16.0.0, SVG Export Plug-In . SVG Version: 6.00 Build 0)  -->
<!DOCTYPE svg PUBLIC "-//W3C//DTD SVG 1.1//EN" "http://www.w3.org/Graphics/SVG/1.1/DTD/svg11.dtd">
<svg version="1.1" id="Layer_1" xmlns="http://www.w3.org/2000/svg" xmlns:xlink="http://www.w3.org/1999/xlink" x="0px" y="0px"
	 width="82px" height="82px" viewBox="0 0 82 82" enable-background="new 0 0 82 82" xml:space="preserve">
<g>
	<path fill-rule="evenodd" clip-rule="evenodd" fill="#4B4D4F" d="M70.745,25.91c-0.999-0.998-2.616-0.998-3.616,0L51.782,41.26
		c-0.943-0.007-1.89,0.351-2.609,1.071c-1.437,1.434-1.437,3.759,0,5.191c1.432,1.436,3.752,1.436,5.191,0
		c0.737-0.741,1.083-1.716,1.062-2.685l15.319-15.316C71.741,28.524,71.741,26.905,70.745,25.91z"/>
	<path fill-rule="evenodd" clip-rule="evenodd" fill="#4B4D4F" d="M75.656,45.559H59.22c0,4.126-3.343,7.471-7.469,7.471
		c-4.122,0-7.47-3.345-7.47-7.471H28.242c-1.721,0-3.122,1.216-3.122,2.706v2.709c0,1.492,1.401,2.706,3.122,2.706h1.77
		l3.247,21.944c0,1.995,1.616,3.608,3.61,3.608h30.163c1.998,0,3.612-1.613,3.612-3.608L73.89,53.68h1.767
		c1.726,0,3.123-1.214,3.123-2.706v-2.709C78.779,46.774,77.382,45.559,75.656,45.559z M42.318,74.349
		c-1.349,0.188-2.592-0.751-2.781-2.093L37.49,57.637c-0.188-1.349,0.741-2.591,2.093-2.781c1.345-0.19,2.589,0.751,2.774,2.093
		l2.057,14.624C44.6,72.917,43.663,74.16,42.318,74.349z M54.402,71.946c0,1.354-1.097,2.448-2.452,2.448
		c-1.349,0-2.449-1.094-2.449-2.448v-14.69c0-1.349,1.101-2.446,2.449-2.446c1.355,0,2.452,1.098,2.452,2.446V71.946z
		 M64.366,72.256c-0.188,1.342-1.433,2.281-2.781,2.093s-2.277-1.432-2.093-2.776l2.051-14.624c0.188-1.342,1.433-2.283,2.781-2.093
		c1.345,0.19,2.281,1.433,2.089,2.781L64.366,72.256z"/>
</g>
<g>
	<path fill="#00B4C5" d="M46.506,19.958c0-7.579-9.241-13.723-20.636-13.723c-11.396,0-20.634,6.144-20.634,13.723
		c0,7.581,9.239,13.726,20.634,13.726c1.763,0,3.46-0.163,5.096-0.438c1.708,1.822,4.518,4.07,8.378,4.699
		c0,0-1.698-3.33-2.302-6.455C42.729,29.043,46.506,24.799,46.506,19.958z"/>
	<path fill="#4B4D4F" d="M43.341,40.861l-4.357-0.709c-3.891-0.634-6.836-2.664-8.803-4.526c-1.457,0.196-2.901,0.294-4.311,0.294
		C13.045,35.92,3,28.909,3,19.958C3,11.01,13.045,4,25.87,4c12.826,0,22.871,7.01,22.871,15.958c0,5.099-3.36,9.771-9.086,12.764
		c0.671,2.214,1.668,4.182,1.681,4.207L43.341,40.861z M31.776,30.841l0.82,0.875c0.706,0.753,1.64,1.602,2.792,2.336
		c-0.213-0.695-0.402-1.419-0.541-2.138l-0.342-1.767l1.653-0.711c5.08-2.186,8.112-5.729,8.112-9.478
		c0-6.227-8.426-11.487-18.399-11.487S7.472,13.732,7.472,19.958c0,6.228,8.425,11.49,18.398,11.49c1.555,0,3.1-0.134,4.724-0.407
		L31.776,30.841z"/>
</g>
<g>
	<circle fill="#FFFFFF" cx="16.156" cy="20.353" r="2.355"/>
	<circle fill="#FFFFFF" cx="25.87" cy="20.353" r="2.356"/>
	<circle fill="#FFFFFF" cx="35.583" cy="20.353" r="2.356"/>
</g>
</svg>
