<?xml version="1.0" encoding="utf-8"?>
<!-- Generator: Adobe Illustrator 16.0.0, SVG Export Plug-In . SVG Version: 6.00 Build 0)  -->
<!DOCTYPE svg PUBLIC "-//W3C//DTD SVG 1.1//EN" "http://www.w3.org/Graphics/SVG/1.1/DTD/svg11.dtd">
<svg version="1.1" id="Layer_1" xmlns="http://www.w3.org/2000/svg" xmlns:xlink="http://www.w3.org/1999/xlink" x="0px" y="0px"
	 width="82px" height="82px" viewBox="0 0 82 82" enable-background="new 0 0 82 82" xml:space="preserve">
<g>
	<g>
		<path fill="#00B4C5" d="M42.427,40.552l-7.611-7.611c-0.428-0.429-0.99-0.643-1.551-0.643c-0.561,0-1.122,0.214-1.55,0.643
			c-0.856,0.856-0.856,2.245,0,3.101l6.06,6.061l-6.06,6.061c-0.856,0.857-0.856,2.244,0,3.102c0.428,0.429,0.99,0.643,1.55,0.643
			c0.562,0,1.123-0.214,1.551-0.643l7.611-7.611C43.283,42.797,43.283,41.409,42.427,40.552z"/>
		<path fill="#00B4C5" d="M32.22,40.552l-7.612-7.611c-0.428-0.429-0.989-0.643-1.55-0.643c-0.562,0-1.123,0.214-1.551,0.643
			c-0.856,0.856-0.856,2.245,0,3.101l6.061,6.061l-6.061,6.061c-0.856,0.857-0.856,2.244,0,3.102
			c0.429,0.429,0.99,0.643,1.551,0.643c0.561,0,1.122-0.214,1.55-0.643l7.612-7.611C33.077,42.797,33.077,41.409,32.22,40.552z"/>
	</g>
	<g>
		<path fill="#4B4D4F" d="M64.487,48.987c0.5,0,1.003-0.192,1.386-0.574c0.394-0.396,0.578-0.916,0.568-1.435l8.173-8.17
			c0.53-0.535,0.53-1.398,0-1.928c-0.267-0.266-0.616-0.4-0.964-0.4c-0.349,0-0.699,0.134-0.964,0.4l-8.191,8.188
			c-0.005,0-0.008,0-0.012,0c-0.498,0-1.001,0.192-1.38,0.573c-0.765,0.765-0.765,2.006,0,2.771
			C63.485,48.795,63.986,48.987,64.487,48.987z"/>
		<path fill="#4B4D4F" d="M77.235,47.364h-8.771c0,2.202-1.782,3.987-3.984,3.987c-2.201,0-3.985-1.785-3.985-3.987h-3.342h-3.655
			h-1.561c-0.919,0-1.667,0.648-1.667,1.445v1.445c0,0.795,0.748,1.442,1.667,1.442h0.942l0.56,3.781c0,0.001,0,0.001,0,0.001
			l0.438,2.955l0.734,4.972c0,1.065,0.862,1.926,1.926,1.926h16.096c1.066,0,1.927-0.86,1.927-1.926l1.733-11.709h0.942
			c0.923,0,1.666-0.647,1.666-1.442V48.81C78.901,48.013,78.158,47.364,77.235,47.364z M59.445,62.727
			c-0.061,0.009-0.123,0.014-0.184,0.014c-0.646,0-1.207-0.475-1.299-1.13l-1.094-7.801c-0.025-0.188-0.009-0.369,0.039-0.537
			c0.002-0.012,0.012-0.019,0.015-0.029c0.051-0.158,0.125-0.308,0.229-0.437c0.201-0.25,0.49-0.432,0.834-0.481
			c0.062-0.009,0.123-0.013,0.184-0.013c0.644,0,1.204,0.478,1.297,1.13l1.097,7.802C60.662,61.964,60.164,62.627,59.445,62.727z
			 M65.895,61.444c0,0.723-0.588,1.309-1.312,1.309c-0.716,0-1.306-0.586-1.306-1.309v-7.838c0-0.72,0.59-1.307,1.306-1.307
			c0.724,0,1.312,0.587,1.312,1.307V61.444z M71.211,61.61c-0.093,0.655-0.655,1.13-1.303,1.13c-0.061,0-0.121-0.005-0.183-0.014
			c-0.719-0.1-1.216-0.763-1.116-1.482l1.095-7.802c0.092-0.652,0.655-1.13,1.298-1.13c0.062,0,0.123,0.004,0.185,0.013
			c0.719,0.102,1.219,0.764,1.116,1.484L71.211,61.61z"/>
	</g>
	<path fill="#4B4D4F" d="M49.201,56.819h-37.14c-0.896,0-1.625-0.729-1.625-1.626V27.343c0.131-0.01,0.258-0.042,0.39-0.061
		c0.159-0.021,0.317-0.04,0.475-0.073c0.224-0.047,0.442-0.111,0.66-0.18c0.144-0.046,0.288-0.085,0.429-0.139
		c0.231-0.09,0.453-0.202,0.673-0.315c0.114-0.061,0.234-0.109,0.346-0.174c0.324-0.191,0.635-0.406,0.925-0.648
		c1.225,1.023,2.78,1.611,4.408,1.611c1.629,0,3.184-0.587,4.408-1.609c1.224,1.022,2.778,1.609,4.408,1.609
		c1.631,0,3.186-0.587,4.41-1.609c1.224,1.022,2.78,1.609,4.408,1.609c1.628,0,3.183-0.587,4.408-1.609
		c1.224,1.023,2.78,1.612,4.41,1.612c1.629,0,3.186-0.589,4.411-1.612c0.291,0.243,0.602,0.457,0.928,0.648
		c0.105,0.063,0.219,0.108,0.327,0.166c0.226,0.119,0.452,0.232,0.691,0.324c0.135,0.052,0.276,0.089,0.416,0.134
		c0.22,0.07,0.441,0.136,0.671,0.183c0.153,0.033,0.311,0.052,0.468,0.073c0.131,0.019,0.259,0.051,0.392,0.061v15.635h3.655V26.573
		c2.233-1.149,3.779-3.451,3.779-6.131c0-1.024-0.234-2.038-0.686-2.973l0.026-0.121L53.234,7.014C52.562,5.895,50.515,4,47.11,4
		H16.635c-3.064,0-5.192,1.896-5.973,3.027l-6.685,9.834l-0.348,0.605l0.009,0.128c-0.423,0.911-0.636,1.867-0.636,2.846
		c0,2.679,1.546,4.982,3.778,6.131v28.62c0,2.913,2.369,5.282,5.281,5.282h37.682L49.201,56.819z"/>
</g>
</svg>
