<?xml version="1.0" encoding="utf-8"?>
<!-- Generator: Adobe Illustrator 16.0.0, SVG Export Plug-In . SVG Version: 6.00 Build 0)  -->
<!DOCTYPE svg PUBLIC "-//W3C//DTD SVG 1.1//EN" "http://www.w3.org/Graphics/SVG/1.1/DTD/svg11.dtd">
<svg version="1.1" id="Layer_1" xmlns="http://www.w3.org/2000/svg" xmlns:xlink="http://www.w3.org/1999/xlink" x="0px" y="0px"
	 width="82px" height="82px" viewBox="0 0 82 82" enable-background="new 0 0 82 82" xml:space="preserve">
<path fill="#4B4D4F" d="M46,55.378l-2.9-1.135C43.002,54.208,42.903,54,42.809,54H11.605C10.75,54,10,53.382,10,52.526V25.96
	c2-0.033,2.717-0.561,3.838-1.468c0.959,0.772,2.151,1.255,3.418,1.406c0.264,0.033,0.491,0.071,0.761,0.071
	c0.778,0,1.519-0.14,2.231-0.403c0.711-0.262,1.365-0.628,1.95-1.116C23.365,25.424,24.84,26,26.394,26c0.001,0,0.002,0,0.003,0
	s0.002,0,0.003,0c1.553,0,3.042-0.559,4.208-1.531c1.167,0.972,2.648,1.531,4.2,1.531c0.005,0,0.009,0,0.014,0
	c0.004,0,0.008,0,0.013,0c1.542,0,3.041-0.571,4.207-1.534c1.164,0.965,2.638,1.525,4.181,1.525c0.018,0,0.034,0.009,0.053,0.009
	c0.018,0,0.035,0,0.053,0c1.513,0,3.264-0.554,4.424-1.48C48.889,25.431,50,25.946,52,25.961v9.251l3-1.02v-8.829
	c1-1.041,3.563-3.333,3.563-6.001c0-0.977-0.385-1.945-0.813-2.837l-0.056-0.115l-6.757-9.698C50.295,5.644,48.303,4,45.054,4H15.97
	c-2.924,0-4.954,1.646-5.7,2.726l-6.378,9.303l-0.334,0.537l0.009,0.101c-0.403,0.87-0.565,1.771-0.565,2.707
	C3.002,22.071,4,24.387,7,25.41v27.117C7,55.306,8.827,57,11.605,57H46V55.378z"/>
<path fill="#4B4D4F" d="M79.41,50.391l-4.771-4.163l4.271-3.923l-13.434-4.913l-3.683,3.38l-3.68-3.38l-13.437,4.913l4.489,4.126
	l-4.541,3.96l5.427,1.985v8.398c0,0.462,0.286,0.878,0.718,1.043l10.687,4.095c0.011,0.005,0.023,0.003,0.034,0.006
	c0.117,0.042,0.241,0.067,0.365,0.067s0.248-0.025,0.365-0.067c0.011-0.003,0.023-0.001,0.034-0.006l10.687-4.095
	c0.432-0.165,0.717-0.581,0.717-1.043v-8.279L79.41,50.391z M75.099,49.592l-8.683,3.176l-2.241-1.956l8.682-3.175L75.099,49.592z
	 M65.984,39.955l8.714,3.188l-2.025,1.858l-8.712-3.188L65.984,39.955z M61.794,43.396l8.073,2.956l-7.85,2.872l-8.074-2.955
	L61.794,43.396z M48.888,43.143l8.716-3.188l2.022,1.857l-8.715,3.189L48.888,43.143z M51.179,47.637l8.685,3.175l-2.242,1.956
	l-8.682-3.176L51.179,47.637z M52.285,60.008v-6.815l5.811,2.125l2.644-2.306v10.234L52.285,60.008z M71.426,60.008l-8.454,3.238
	V52.726l2.973,2.592l5.481-2.005V60.008z"/>
<g>
	<path fill="#00B4C5" d="M40.584,38.637l-7.263-7.263c-0.409-0.409-0.944-0.613-1.48-0.613c-0.535,0-1.071,0.204-1.48,0.613
		c-0.817,0.818-0.817,2.142,0,2.959l5.784,5.784L30.361,45.9c-0.817,0.817-0.817,2.142,0,2.96c0.409,0.409,0.945,0.613,1.48,0.613
		c0.536,0,1.071-0.204,1.48-0.613l7.263-7.263C41.401,40.779,41.401,39.454,40.584,38.637z"/>
	<path fill="#00B4C5" d="M30.843,38.637l-7.263-7.263c-0.409-0.409-0.944-0.613-1.48-0.613s-1.071,0.204-1.48,0.613
		c-0.818,0.818-0.818,2.142,0,2.959l5.784,5.784L20.62,45.9c-0.818,0.817-0.818,2.142,0,2.96c0.409,0.409,0.944,0.613,1.48,0.613
		s1.071-0.204,1.48-0.613l7.263-7.263C31.661,40.779,31.661,39.454,30.843,38.637z"/>
</g>
</svg>
