<?xml version="1.0" encoding="utf-8"?>
<!-- Generator: Adobe Illustrator 16.0.0, SVG Export Plug-In . SVG Version: 6.00 Build 0)  -->
<!DOCTYPE svg PUBLIC "-//W3C//DTD SVG 1.1//EN" "http://www.w3.org/Graphics/SVG/1.1/DTD/svg11.dtd">
<svg version="1.1" id="Layer_1" xmlns="http://www.w3.org/2000/svg" xmlns:xlink="http://www.w3.org/1999/xlink" x="0px" y="0px"
	 width="82px" height="82px" viewBox="0 0 82 82" enable-background="new 0 0 82 82" xml:space="preserve">
<g>
	<path fill="#4B4D4F" d="M70.298,41.663l8.109-7.501L52.64,24.749l-2.027,1.859c-1.322,2.742-3.392,5.239-6.167,7.309
		c0.055,0.109,0.086,0.172,0.086,0.174l1.126,2.208c0.029,0.058,0.048,0.12,0.077,0.179l0.145-0.054L60.844,41.9l-14.787,5.411
		L35.59,43.413c-1.236-0.327-2.444-0.776-3.618-1.346l-0.751-0.28l0.128-0.047c-1.132-0.598-2.24-1.268-3.28-2.082
		c-0.925,0.072-1.837,0.107-2.728,0.107c-0.416,0-0.819-0.032-1.23-0.047l-0.088,0.078c-0.4,0.181-0.728,0.468-0.952,0.83
		l-10.89,8.996L22,53.427v15.982c0,0.904,1.138,1.716,1.982,2.04l20.67,7.805c0.021,0.01,0.186-0.192,0.208-0.186
		C45.089,79.147,45.473,79,45.715,79c0.002,0,0.006,0,0.007,0c0,0,0,0,0.002,0c0.004,0,0.005,0,0.007,0
		c0.242,0,0.479,0.147,0.708,0.068c0.022-0.007,0.045,0.098,0.066,0.088l20.237-7.758C67.586,71.074,68,70.313,68,69.409V53.655
		l11.164-4.034L70.298,41.663z M21.196,48.059l4.18-3.648l16.441,6.017l-4.181,3.646L21.196,48.059z M43,74.039l-17-6.132V55.025
		l11.529,4.037L43,54.722V74.039z M49.916,33.155l3.692-3.391L70.113,35.8l-3.769,3.46l-1.573-0.575L49.916,33.155z M62,67.907
		l-15,6.132V54.177l5.096,4.886L62,55.252V67.907z M54.435,54.073l-4.17-3.638l16.438-6.017l4.172,3.64L54.435,54.073z"/>
	<g>
		<path fill="#00B4C5" d="M45.499,19.591c0-7.404-9.027-13.407-20.158-13.407c-11.132,0-20.157,6.003-20.157,13.407
			C5.184,26.997,14.209,33,25.341,33c1.722,0,3.38-0.159,4.978-0.428c1.669,1.78,4.413,3.976,8.184,4.588
			c0,0-1.659-3.25-2.249-6.305C41.811,28.466,45.499,24.319,45.499,19.591z"/>
		<path fill="#4B4D4F" d="M42.407,40.007l-4.254-0.691c-3.801-0.618-6.679-2.6-8.6-4.419c-1.423,0.191-2.834,0.288-4.211,0.288
			C12.813,35.184,3,28.334,3,19.591C3,10.849,12.813,4,25.341,4c12.528,0,22.341,6.849,22.341,15.591
			c0,4.983-3.283,9.546-8.876,12.469c0.656,2.163,1.63,4.084,1.642,4.107L42.407,40.007z M31.11,30.223l0.801,0.854
			c0.689,0.735,1.603,1.565,2.726,2.282c-0.208-0.68-0.393-1.387-0.528-2.09l-0.334-1.727l1.616-0.694
			c4.961-2.133,7.923-5.594,7.923-9.257c0-6.083-8.23-11.223-17.973-11.223c-9.742,0-17.973,5.14-17.973,11.223
			c0,6.084,8.231,11.225,17.973,11.225c1.519,0,3.028-0.13,4.614-0.397L31.11,30.223z"/>
	</g>
	<g>
		<circle fill="#FFFFFF" cx="15.851" cy="19.975" r="2.301"/>
		<circle fill="#FFFFFF" cx="25.341" cy="19.975" r="2.302"/>
		<circle fill="#FFFFFF" cx="34.83" cy="19.975" r="2.302"/>
	</g>
</g>
</svg>
